# AST/ASF file generated using VICON BodyLanguage
# -----------------------------------------------
:version 1.10
:name VICON
:units
  mass 1.0
  length 0.45
  angle deg
:documentation
   .ast/.asf automatically generated from VICON data using
   VICON BodyBuilder and BodyLanguage model FoxedUp or BRILLIANT.MOD
:root
   order TX TY TZ RX RY RZ
   axis XYZ
   position 0 0 0  
   orientation 0 0 0 
:bonedata
  begin
     id 1 
     name lhipjoint
     direction 0.624716 -0.669793 0.401383 
     length 2.38238 
     axis 0 0 0  XYZ
  end
  begin
     id 2 
     name lfemur
     direction 0.34202 -0.939693 0  
     length 6.4574  
     axis 0 0 20  XYZ
    dof rx ry rz
    limits (-160.0 20.0)
           (-70.0 70.0)
           (-60.0 70.0)
  end
  begin
     id 3 
     name ltibia
     direction 0.34202 -0.939693 0   
     length 7.68739   
     axis 0 0 20   XYZ
    dof rx
    limits (-10.0 170.0)
  end
  begin
     id 4 
     name lfoot
     direction 0.0681309 -0.187188 0.979959   
     length 2.46615   
     axis -90 7.62852e-016 20   XYZ
    dof rx rz
    limits (-45.0 90.0)
           (-70.0 20.0)
  end
  begin
     id 5 
     name ltoes
     direction 1.53566e-011 -4.21819e-011 1   
     length 1.2376   
     axis -90 7.62852e-016 20   XYZ
    dof rx
    limits (-90.0 20.0)
  end
  begin
     id 6 
     name rhipjoint
     direction -0.644473 -0.655875 0.393043   
     length 2.43293  
     axis 0 0 0  XYZ 
  end
  begin
     id 7 
     name rfemur
     direction -0.34202 -0.939693 0   
     length 6.7025   
     axis 0 0 -20   XYZ
    dof rx ry rz
    limits (-160.0 20.0)
           (-70.0 70.0)
           (-70.0 60.0)
  end
  begin
     id 8 
     name rtibia
     direction -0.34202 -0.939693 0   
     length 7.80547   
     axis 0 0 -20   XYZ
    dof rx
    limits (-10.0 170.0)
 end
 begin
     id 9 
     name rfoot
     direction -0.0756734 -0.207911 0.975216   
     length 2.40315  
     axis -90 -7.62852e-016 -20   XYZ
    dof rx rz
    limits (-45.0 90.0)
           (-20.0 70.0)
  end
  begin
     id 10 
     name rtoes
     direction -1.5353e-011 -4.21879e-011 1   
     length 1.20477   
     axis -90 -7.62852e-016 -20   XYZ
    dof rx
    limits (-90.0 20.0)
  end
  begin
     id 11 
     name lowerback
     direction 0.0160353 0.987463 -0.157037   
     length 2.18572   
     axis 0 0 0   XYZ
    dof rx ry rz
    limits (-20.0 45.0)
           (-30.0 30.0)
           (-30.0 30.0)
  end
  begin
     id 12 
     name upperback
     direction -0.00499661 0.999756 0.0215076   
     length 2.18016   
     axis 0 0 0   XYZ
    dof rx ry rz
    limits (-20.0 45.0)
           (-30.0 30.0)
           (-30.0 30.0)
  end
  begin
     id 13 
     name thorax
     direction -0.00921346 0.995333 0.0960619   
     length 2.24923   
     axis 0 0 0   XYZ
    dof rx ry rz
    limits (-20.0 45.0)
           (-30.0 30.0)
           (-30.0 30.0)
  end
  begin
     id 14 
     name lowerneck
     direction 0.0274184 0.991181 0.12965   
     length 1.70911   
     axis 0 0 0   XYZ
    dof rx ry rz
    limits (-20.0 45.0)
           (-30.0 30.0)
           (-30.0 30.0)
  end
  begin
     id 15 
     name upperneck
     direction 0.0015627 0.999959 -0.00893559   
     length 1.69312   
     axis 0 0 0   XYZ
    dof rx ry rz
    limits (-20.0 45.0)
           (-30.0 30.0)
           (-30.0 30.0)
  end
  begin
     id 16
     name head
     direction -0.00230242 0.999856 -0.0168327  
     length 1.80241  
     axis 0 0 0   XYZ
    dof rx ry rz
    limits (-20.0 45.0)
           (-30.0 30.0)
           (-30.0 30.0)
  end
  begin
     id 17 
     name lclavicle
     direction 0.955523 0.290741 -0.0494489  
     length 3.84275  
     axis 0 0 0   XYZ
    dof ry rz
    limits (-20.0 10.0)
           (0.0 20.0)
  end
  begin
     id 18 
     name lhumerus
     direction 1 -4.48967e-011 -3.18382e-028   
     length 5.17714   
     axis 180 -30 -90   XYZ
    dof rx ry rz
    limits (-60.0 90.0)
           (-90.0 90.0)
           (-90.0 90.0)
  end
  begin
     id 19
     name lradius
     direction 1 -4.48968e-011 -2.22911e-027   
     length 3.43679   
     axis 180 -30 -90   XYZ
    dof rx
    limits (-10.0 170.0)
  end
  begin
     id 20
     name lwrist
     direction 1 -4.48951e-011 -6.32245e-027   
     length 1.7184   
     axis 3.57107e-015 90 90   XYZ
    dof ry
    limits (-180.0 0.0)
 end
  begin
     id 21 
     name lhand
     direction 1 -4.48924e-011 -1.26431e-026   
     length 0.573117   
     axis 8.06912e-015 90 90   XYZ
    dof rx rz
    limits (-90.0 90.0)
           (-45.0 45.0)
  end
  begin
     id 22 
     name lfingers
     direction 1 -4.49001e-011 -2.52965e-026   
     length 0.462062   
     axis 1.61381e-014 90 90   XYZ
    dof rx
    limits (0.0 90.0)
  end
  begin
     id 23
     name lthumb
     direction 0.707107 -6.35008e-011 0.707107   
     length 0.663431   
     axis -90 45 -1.62303e-014   XYZ
    dof rx rz
    limits (-45.0 45.0)
           (-45.0 45.0)
  end
  begin
     id 24 
     name rclavicle
     direction -0.963917 0.256881 -0.0698287   
     length 3.73057  
     axis 0 0 0   XYZ 
    dof ry rz
    limits (-10.0 20.0)
           (-20.0 0.0)
  end
  begin
     id 25 
     name rhumerus
     direction -1 -4.48962e-011 -2.73982e-027  
     length 5.23908   
     axis 180 30 90   XYZ
    dof rx ry rz
    limits (-90.0 60.0)
           (-90.0 90.0)
           (-90.0 90.0)
  end
  begin
     id 26 
     name rradius
     direction -1 -4.48968e-011 -4.33218e-027   
     length 3.46485   
     axis 180 30 90   XYZ
    dof rx
    limits (-10.0 170.0)
  end
  begin
     id 27 
     name rwrist
     direction -1 -4.48989e-011 -6.32372e-027   
     length 1.73243   
     axis 3.57107e-015 -90 -90   XYZ
    dof ry
    limits (-180.0 0.0)
  end
  begin
     id 28
     name rhand
     direction -1 -4.48948e-011 -1.26448e-026   
     length 0.608752   
     axis 8.06912e-015 -90 -90   XYZ
    dof rx rz
    limits (-90.0 90.0)
           (-45.0 45.0)
  end
  begin
     id 29
     name rfingers
     direction -1 -4.48962e-011 -2.52913e-026   
     length 0.490792   
     axis 1.61381e-014 -90 -90   XYZ
    dof rx
    limits (0.0 90.0)
  end
  begin
     id 30
     name rthumb
     direction -0.707107 -6.34878e-011 0.707107   
     length 0.704682   
     axis -90 -45 1.62303e-014   XYZ
    dof rx rz
    limits (-45.0 45.0)
           (-45.0 45.0)
  end
:hierarchy
  begin
    root lhipjoint rhipjoint lowerback
    lhipjoint lfemur
    lfemur ltibia
    ltibia lfoot
    lfoot ltoes
    rhipjoint rfemur
    rfemur rtibia
    rtibia rfoot
    rfoot rtoes
    lowerback upperback
    upperback thorax
    thorax lowerneck lclavicle rclavicle
    lowerneck upperneck
    upperneck head
    lclavicle lhumerus
    lhumerus lradius
    lradius lwrist
    lwrist lhand lthumb
    lhand lfingers
    rclavicle rhumerus
    rhumerus rradius
    rradius rwrist
    rwrist rhand rthumb
    rhand rfingers
  end

#!OML:ASF G:\JayActor3\Patient Classification 1\Patient 1\Session 6\male.ASF
:FULLY-SPECIFIED
:DEGREES
960
root -3.91743 16.3581 3.7794 177.677 -36.3242 -179.552
lowerback -8.02427 -2.30333 5.33171
upperback 0.0792979 -3.68234 1.30974
thorax 4.33706 -1.74454 -2.04951
lowerneck -0.197895 13.5203 10.9949
upperneck 18.3675 19.7069 -15.8378
head 8.43485 8.66728 -5.31267
rclavicle 5.18331e-014 -4.69132e-014
rhumerus -80.7237 34.6376 -110.658
rradius 89.9729
rwrist 22.6059
rhand -54.1126 34.7943
rfingers 7.12502
rthumb -26.5311 6.63218
lclavicle 5.18331e-014 -4.69132e-014
lhumerus -23.0338 14.8636 86.7677
lradius 18.4319
lwrist 12.0856
lhand -6.6998 11.1596
lfingers 7.12502
lthumb 19.1595 40.2359
rfemur -11.4756 10.842 22.1393
rtibia 39.4519
rfoot -27.6694 -17.3216
rtoes 2.01964
lfemur 6.14141 8.0098 -16.2322
ltibia 18.53
lfoot -18.5894 -4.79227
ltoes -9.19399
961
root -3.89446 16.3628 3.75591 177.545 -36.5202 -179.278
lowerback -8.08703 -2.31362 5.4021
upperback 0.0543498 -3.71212 1.37431
thorax 4.34436 -1.75991 -2.02748
lowerneck -0.242931 13.4902 11.0083
upperneck 18.4766 19.6593 -15.7553
head 8.4647 8.64445 -5.29121
rclavicle 4.10987e-014 4.53229e-014
rhumerus -80.7297 34.6737 -110.571
rradius 90.0551
rwrist 22.6355
rhand -54.0882 34.816
rfingers 7.12502
rthumb -26.5078 6.65035
lclavicle 4.10987e-014 4.53229e-014
lhumerus -23.0731 14.5069 87.0622
lradius 18.8482
lwrist 12.8213
lhand -6.60217 11.3227
lfingers 7.12502
lthumb 19.2534 40.3896
rfemur -11.2826 10.7587 22.5001
rtibia 39.1287
rfoot -27.6971 -17.3174
rtoes 2.42342
lfemur 6.08001 7.38461 -16.0562
ltibia 18.5735
lfoot -18.7277 -4.10744
ltoes -9.34154
962
root -3.87151 16.3671 3.73325 177.418 -36.7196 -179.008
lowerback -8.13947 -2.32681 5.4696
upperback 0.0312002 -3.74483 1.43783
thorax 4.34763 -1.77684 -2.00477
lowerneck -0.284999 13.4568 11.0298
upperneck 18.5546 19.6083 -15.6952
head 8.48637 8.62123 -5.27883
rclavicle -1.1455e-013 3.18055e-015
rhumerus -80.7292 34.6992 -110.478
rradius 90.1386
rwrist 22.6854
rhand -54.0667 34.8363
rfingers 7.12502
rthumb -26.4871 6.66752
lclavicle -1.1455e-013 3.18055e-015
lhumerus -23.1146 14.0879 87.3668
lradius 19.2774
lwrist 13.5478
lhand -6.52711 11.4847
lfingers 7.12502
lthumb 19.3256 40.5444
rfemur -11.1079 10.6267 22.8427
rtibia 38.8191
rfoot -27.7032 -17.2779
rtoes 2.80092
lfemur 6.0023 6.77345 -15.8824
ltibia 18.6347
lfoot -18.8675 -3.44945
ltoes -9.47202
963
root -3.84867 16.3709 3.71154 177.294 -36.9256 -178.743
lowerback -8.1782 -2.34283 5.53128
upperback 0.0100014 -3.77992 1.50219
thorax 4.34548 -1.79523 -1.97755
lowerneck -0.330739 13.4244 11.049
upperneck 18.6098 19.5588 -15.6435
head 8.50197 8.59943 -5.26827
rclavicle -1.1778e-014 3.73715e-014
rhumerus -80.7269 34.7119 -110.38
rradius 90.2218
rwrist 22.7505
rhand -54.0573 34.8594
rfingers 7.12502
rthumb -26.4782 6.68925
lclavicle -1.1778e-014 3.73715e-014
lhumerus -23.1552 13.6284 87.6805
lradius 19.7106
lwrist 14.2322
lhand -6.47198 11.6439
lfingers 7.12502
lthumb 19.3786 40.6983
rfemur -10.9477 10.438 23.1646
rtibia 38.5213
rfoot -27.6827 -17.2026
rtoes 3.13548
lfemur 5.90392 6.20114 -15.7046
ltibia 18.7249
lfoot -19.0011 -2.84633
ltoes -9.60799
964
root -3.82664 16.3741 3.69061 177.158 -37.1251 -178.471
lowerback -8.20909 -2.36047 5.60483
upperback -0.0022194 -3.81856 1.57123
thorax 4.34766 -1.81493 -1.95231
lowerneck -0.372346 13.3948 11.063
upperneck 18.6296 19.5141 -15.6106
head 8.50705 8.58061 -5.26251
rclavicle -9.91439e-014 -3.89618e-014
rhumerus -80.7213 34.7247 -110.28
rradius 90.2993
rwrist 22.8305
rhand -54.0607 34.8697
rfingers 7.12502
rthumb -26.4814 6.70006
lclavicle -9.91439e-014 -3.89618e-014
lhumerus -23.1896 13.1516 88.0001
lradius 20.1359
lwrist 14.8385
lhand -6.44814 11.7723
lfingers 7.12502
lthumb 19.4015 40.8244
rfemur -10.7922 10.1991 23.4766
rtibia 38.2319
rfoot -27.6333 -17.0864
rtoes 3.43268
lfemur 5.78642 5.68325 -15.5104
ltibia 18.8623
lfoot -19.1375 -2.2927
ltoes -9.76651
965
root -3.80546 16.3766 3.67044 177.006 -37.3138 -178.192
lowerback -8.22934 -2.37629 5.69378
upperback -0.00365662 -3.85611 1.64185
thorax 4.35439 -1.83347 -1.9336
lowerneck -0.400184 13.3634 11.0741
upperneck 18.6049 19.4677 -15.5984
head 8.49629 8.56272 -5.26416
rclavicle -2.97183e-014 1.03368e-014
rhumerus -80.7098 34.7296 -110.178
rradius 90.3677
rwrist 22.9201
rhand -54.091 34.8696
rfingers 7.12502
rthumb -26.5104 6.70433
lclavicle -2.97183e-014 1.03368e-014
lhumerus -23.2134 12.6712 88.3186
lradius 20.5422
lwrist 15.3398
lhand -6.42506 11.8793
lfingers 7.12502
lthumb 19.4237 40.9291
rfemur -10.6352 9.91312 23.7805
rtibia 37.9495
rfoot -27.5526 -16.9362
rtoes 3.68093
lfemur 5.64759 5.22785 -15.2979
ltibia 19.062
lfoot -19.2774 -1.79754
ltoes -9.95161
966
root -3.78452 16.3786 3.65128 176.835 -37.4973 -177.897
lowerback -8.23682 -2.39157 5.79958
upperback 0.00443547 -3.89454 1.71742
thorax 4.36315 -1.85197 -1.91876
lowerneck -0.416338 13.3318 11.0736
upperneck 18.5382 19.4203 -15.5965
head 8.4689 8.54616 -5.2681
rclavicle 4.06018e-014 1.59028e-015
rhumerus -80.689 34.7255 -110.072
rradius 90.4271
rwrist 23.005
rhand -54.1368 34.8924
rfingers 7.12502
rthumb -26.5542 6.73379
lclavicle 4.06018e-014 1.59028e-015
lhumerus -23.2197 12.1776 88.6382
lradius 20.9219
lwrist 15.7477
lhand -6.41757 11.9477
lfingers 7.12502
lthumb 19.4309 40.9969
rfemur -10.4803 9.58547 24.0876
rtibia 37.6716
rfoot -27.4474 -16.7602
rtoes 3.90104
lfemur 5.4707 4.84511 -15.0535
ltibia 19.3409
lfoot -19.4192 -1.38253
ltoes -10.1523
967
root -3.76404 16.3798 3.63296 176.645 -37.6683 -177.594
lowerback -8.22959 -2.4036 5.92083
upperback 0.0235397 -3.92944 1.79152
thorax 4.37432 -1.86809 -1.91311
lowerneck -0.427369 13.3016 11.0706
upperneck 18.4453 19.3742 -15.5992
head 8.43222 8.53183 -5.27313
rclavicle 4.91992e-014 5.56597e-015
rhumerus -80.6632 34.7079 -109.964
rradius 90.4803
rwrist 23.089
rhand -54.203 34.9524
rfingers 7.12502
rthumb -26.6176 6.80337
lclavicle 4.91992e-014 5.56597e-015
lhumerus -23.2074 11.6729 88.9502
lradius 21.2649
lwrist 16.058
lhand -6.41283 11.9892
lfingers 7.12502
lthumb 19.4355 41.0379
rfemur -10.3181 9.22765 24.3931
rtibia 37.3975
rfoot -27.3222 -16.565
rtoes 4.09076
lfemur 5.25887 4.52344 -14.7906
ltibia 19.7106
lfoot -19.5664 -1.03009
ltoes -10.3819
968
root -3.74343 16.3806 3.61561 176.442 -37.8262 -177.282
lowerback -8.20533 -2.40963 6.05541
upperback 0.0480963 -3.9566 1.86484
thorax 4.38128 -1.88012 -1.91402
lowerneck -0.432153 13.2702 11.0647
upperneck 18.3333 19.3253 -15.5995
head 8.38699 8.51791 -5.27752
rclavicle -4.02042e-014 -4.69132e-014
rhumerus -80.6322 34.6681 -109.855
rradius 90.5289
rwrist 23.1564
rhand -54.2846 35.0511
rfingers 7.12502
rthumb -26.6957 6.91393
lclavicle -4.02042e-014 -4.69132e-014
lhumerus -23.1763 11.2103 89.2403
lradius 21.5571
lwrist 16.2264
lhand -6.43917 11.9777
lfingers 7.12502
lthumb 19.4101 41.0289
rfemur -10.1567 8.85638 24.7046
rtibia 37.1263
rfoot -27.181 -16.372
rtoes 4.24492
lfemur 4.99613 4.26722 -14.5042
ltibia 20.1805
lfoot -19.7157 -0.743213
ltoes -10.63
969
root -3.7222 16.3812 3.59934 176.235 -37.9909 -176.97
lowerback -8.13806 -2.43079 6.17196
upperback 0.0538892 -3.99868 1.94898
thorax 4.34521 -1.90204 -1.8923
lowerneck -0.404382 13.2467 11.0594
upperneck 18.2125 19.2881 -15.6092
head 8.33588 8.51025 -5.2858
rclavicle -8.00108e-014 7.95139e-015
rhumerus -80.6483 34.6391 -109.771
rradius 90.5747
rwrist 23.2093
rhand -54.3785 35.2119
rfingers 7.12502
rthumb -26.7856 7.08847
lclavicle -8.00108e-014 7.95139e-015
lhumerus -23.1636 10.8418 89.5
lradius 21.8059
lwrist 16.269
lhand -6.44877 11.9633
lfingers 7.12502
lthumb 19.4009 41.0154
rfemur -9.9989 8.46914 25.0135
rtibia 36.8575
rfoot -27.04 -16.1846
rtoes 4.39906
lfemur 4.66959 4.0879 -14.1985
ltibia 20.7536
lfoot -19.8587 -0.546523
ltoes -10.9037
